/* XPM */
static char *_e6496fd821c442883ae048709da920fpU2E3tv3575fnBAz[] = {
/* columns rows colors chars-per-pixel */
"64 64 3 1 ",
"  c black",
". c gray66",
"X c gray33",
/* pixels */
"                                                                ",
"                                                                ",
"................     ................    ...............    X...",
"XXXXXXXXX.  XXX..   XXXXXXXXXXXXXXXX..  .....XXX.X.......  XXXXX",
"XXXXXXXXXX. XXXX..  XXXXXXXXXXXXXXX X.  XXXXXXXXXXXXXXX..  XXXXX",
"X XXXXX XXXX XXXX.  XXXXXXXXX  XXXXXX.  XX XXXXXXXXXXXX..  XXXXX",
" XXXXXXX XXXXXXXX.  XXXX  XXXX XXX XX   X XXXXXX XXXXXX..  XX  X",
"XXX  XXXXXXXXXXXX.  XXXX. XXXXXXXXXX .  XXX XXXXXXXXXXXX.  XX. X",
"XXX. XXXXXXXXXXXX.  XXXXXXX XXXXXXXXX.  XXXXXXXXXX XXXX .  X XXX",
"XXXXX XXXXXXXXXX .  XXXXXXXXXXX XXXX .  XXXXXXXXXXXXXXX    XXXXX",
"XXXXXXXXXXXXXXX X.  XXXXXXXXXXXXXXXXX.  XXXXXXXXXXXXXXX    XXXXX",
"XXXXXXXXXXX XXXXX.  XXX XXXXXXXXX XXX.  XX  XXXXXXXXXX X   XXX X",
"XXXXXXXXXXXXXXXXX.   XXX   XXXXXXXXXX   XX. XXXXXXXXXX..   XXXXX",
"XXXXXXXXXXXXXXX X.                      XXXX XXXXXXXXX..   XXXX ",
"X XXXXXXXXXXXXXXX.                      XXXXXXXXXXXXXX..   XXX  ",
"XXXXXX  X XXXXXXX.  XX...X .........    XXXXXXXXXXXXXXX..  XXXXX",
"XXXXXXX XXXXXXXXX.  XXXXXXXX XXXXXXX.   XX X XXXXXXX   X.  XX XX",
"XXXX XXXXXXXXXXXX   XXXXXXXXXXXXXXXX.   XXX   XXXXXX.. X.  XXXXX",
"XXXXXXXXXXXXXXX      XXXXXXXXXXXXXXX    XXX.  XXXXXXXXXX.   XXXX",
"                                        XXXXX XXXXX XXXX.       ",
"                                        X XXXXXXXXXXXXXX.       ",
".....    ............................   XXX XXXXXXXXXXXX.     ..",
"XXXXX.  XXXXXXXXXXXX XXXXXXXXXXXXXXX..   XXXXXXXXXXXX XX.    XXX",
"XXXXX.  XXXX XXXXXXXXXXXXXXX   XXXXXX.   XXXXXXXXXXXXXXX.    XXX",
"XXXXX.  XXXXXX XXXXXXXXXXXX X  XXXX X.   XXXXXX XXXXXXXX.    XXX",
"XXXXX   XXXXXXXXXXX XXXXXXXXX. XXXXXX.    XXXXXX   XXXXX      XX",
"         XXXXXXXX  XXXXXXXXXXXX XXXXX.                          ",
"                         XXXXXXXXXXXX.                          ",
"                         XXXXX XXXXXX.  XXXX    X.............. ",
"  X...      ..  ......   XXXXXXXXXXXX.  XXXXX  XXXXXXXXX  XXXX..",
" XXXX..................   XXXXXXXXXXX   XXXXX  XXXXXXX X  XXXXX.",
" XXXXXX.....XX..XXXX...                        XXXXXXXXXXXXXXXX.",
" XXXXXXXXXXX  XXXXXXX..                        XXXXXXXX XXXXXXX.",
" XXXXXXXXXXX. XXXXXXX..   X.................   XXXXXXXXXXXXXXX .",
" XXXXXXXX XXXXXXXXXXX..  XXXXXXXXXXXXXXXXXX..  X X.X XXXXXXXXXX.",
" XXXXXXX XXXXXXXXXXXX..  XXXXX  XXXXX  XXXXX.  XXX.  XXXXXXXXXX.",
" XXXXXXXXXXXXXXXXXXXX..  XXXXX. XXXXX  XXXXX.  XXX.. XXXXXX XXX.",
" XX XXXXXXXXXXXXXXXXX..  XX XXXXX  XXXX XXXX.  XXXXXX XXXXXXXXX.",
" XXXXXXXXXXXXXXX  XXX..  XXXXXXXX. XXXXXXXXX.  XXXXXXXXXXXXX XX.",
" XXX XXXXXXXXXXX. XXX..  XXXXXXXXXXXXXXXXXXX.   XXXX XXXXXXXXXX.",
" XX  XXXXXXXXXXXXX XX.X  XXXX   XXXXXXXXXXXX.   XXXXXXXXXX XXXX.",
" XXXX XXXXXXXXX XXXXX.X  XXXX.  XXXXXXXXXXXX.    XXXXXXXX    XX ",
" XXXXXXXXXXXXXXXXXXXX..  XXXX . XXXXXXXXXXXX.                   ",
" XXX XXXXXXXXXXXXXXXX..  XXXXX XXXXXX XX XXX.                   ",
" XXXXXXXXXXXXXXXXXXXX..  XXXXXXXXXXXXXX XXXX.                   ",
" XX   XXXXXXXXXXX XXX..  XXXXXXXXXXXXXXXXXXX.   .............   ",
" XX  XXXXXXXX    XX X..  XXXX XXXXXXXXXXXXXX   XXXXXXXXXXXXX..  ",
" XXXXXXXXXXX XXXX XXXX.   XX X     XXXXXXXX    XXXXXXX XXXX X.  ",
"  XXXXXXXXX  XXXXX  XX                         XXXXXXXXXXXXXX.  ",
"                                               XXXXXXXXXXXXXX.  ",
"                                              XXXXXXXXXXXXXXX.  ",
" ...........................     X...........X.XXXX XXXXX XXX.  ",
"XXXXXXXXXXXXXXXX  XXXXXXXXX..   XXXXX XXXXXXXXXXXXXX XXXXX XX.  ",
"XXXXXXXXXXXXXXXXX XXXXXXXXXX.   XXXXXX XXXXXXXX XXXXXXXXXXXXX.  ",
"XXXXX   XXX XXXXXXXXXXXXXXXX.   XXXXXXXXXXXXXXXXX  XXXXXXXXXX.  ",
"XXXXXX. XXXXXXXXX XXXXXXXX  .   XXX  XXXXXXXXXXXX. XXX  XXXXX.  ",
"XXXXXX X XXXX XXXX XXX XXX. .   XXX. XXX  XXXXXX XXXXX. XXXXX.  ",
"XX  XXXXXXXXXXXXXXXXXXX XXXX.   XXXXX XXX XXXXXXXXXXXXXXXXXXX.  ",
"XX  XXXXXXXXXXXXXXXXXX XXXXX.   XXXXXXXXXXXXXXXXXXXXXXXXXXXXX.  ",
"XXXX XXX XXXXXXXXXXXXXXXXXXX.   XXXXXXXX XXXXXXXXXXXXXXXX X X.  ",
"XXXXXXXXXXXXXXXXXXX XXXXXXXX.   XX XXXXXXXX  XXXX XXXXXXXXXXXX  ",
" XXXXXXXXXXXXXXX   X XXXXXXX     XXXXXXXXX XX    XXXXXXXXXXXX   ",
"                                                                ",
"                                                                "
};
