/* XPM */
static char *_90da02f8a8d4cbb9488fd1cd16657478es24FhbV0i33YOX[] = {
/* columns rows colors chars-per-pixel */
"64 64 3 1 ",
"  c black",
". c gray66",
"X c gray33",
/* pixels */
"                                                                ",
"                                                                ",
"........XXXX.....XX  XX..................XX  X......X  X........",
"..................X  X....................X  X.......  X........",
".....X.............  X..X.......X..........  X.  ....  XX...  ..",
"...........  ......  X.XX.............X....  X.X ....  XX...X ..",
"...........X ......  X.XX..............X...  X....X..  XX.......",
"..X..............X.  X...X.................  X.......  XX..X...X",
"..............X...X  X..........X..........  X...X...  XX.......",
"..................X  XX..........XX .......  X.......  XXX......",
"..........X.......X   XX.......XXX X XXXXX    XXXXXXX  XXXXX....",
"..X .......X.......  X ...X...X.                          XXX...",
"...X...............  XX..X.X....                           XX.X.",
".......X...........  X..........   X..................XXX  XX...",
"........XXXX......X  XX........X  X.....................X  XX...",
".....XXXXXX XXXXXX    XXXXXXXXX   X....X .....X..........  XX...",
"....XX                            X....X  .X......  .....  XX...",
"....X                             X....XX...X.....X .....  XXXXX",
"XXXXX   X..XXX.......X    X....X  X............. ........  XXXXX",
"       X......X.................  X.XX...........X.......       ",
"       X................X.......  X..X................X..       ",
"....X  X........X ..........X...  X.....................X   X...",
".....  XXX.......X..............  X.....................X   X.X.",
"..X..  X.X....X...........X ....  X...X.................X   X...",
".....  XX...XXXX...........X...X  X......................   XX..",
"XXXXX   XXXX    XXXX.X........XX  X.....X....X....X......   XXXX",
"                    X.........XX  XX.....XXX............X       ",
"                     X.........X   XXXXXXXXXXXXXXXXXXXXXX       ",
"   XX..............X  X........X                                ",
"   X................  X..XX.....                                ",
"   X................  X..XX.....  XXXXXXXXX                     ",
"   X.X .......X.....  XX...X....  X......XX   X......XX.....XX  ",
"   X.XX ..  ........  XX........  .X...X..X  XX .............X  ",
"   X......X ........  XXXXXXXXXX  XXXXXXXXX  XXX..............  ",
"   X........X....X..                         X............X ..  ",
"   X................                         X......X......X..  ",
"   X................                         X...X ...........  ",
"   X.....X.........X  XX.....XXX.......XX    X....X...........  ",
"   XX..............X  X.................XX   X................  ",
"   X........X.......  X....X........X....X   X.X..............  ",
"   X................  X......X .....X....X   X..........  ....  ",
"   X..X.......X.....  X..XX..XX...........   XX.........X ....  ",
"   X...............X  X...X........X  .X..   X.X..............  ",
"    XXX..XX.....X..X  X.............X ..X.   X.............X..  ",
"       XXXXXXXXXXXXX  X.............X ....   X.X..X...........  ",
"                      X...............X...   X.X.............X  ",
"                      XXXX.....X..........    ...............X  ",
"XX........X    X...X  X..X...............X      ..............  ",
"X...................  X.................X    XX .....X........  ",
"X.......X.....XX....  X.................XX   X........X......X  ",
"X..  ..........X....  X..................X   X.X............X   ",
"X..X ....X..........  X..................X   X.X............XX  ",
"X....X..............  X..........  ......X   XX..............X  ",
"X..................X  X..........X ......X   XX..............X  ",
"X.................X   X......X.....X......   X.XX.............  ",
"X..................X  X....X.............X   X.X.X......X.....  ",
"X.X ...............X  X.  ...............X   XX.........XX....  ",
"X..X.......X........  X.X ................   XX.X.............  ",
"X....X...X..........  X...................   X................  ",
"X..............XX..X  XX.......XXXX.......   XX.....X.........  ",
"XX...X.XXX...XX..X.X  XXXXXXXXXXX XXXXXXXX   XXXX.XXXX.......X  ",
" XXXXXXXXXXXXXXXXXXX   XXXXXXXX  XXXXXXXX     XXXX...XXXXXXXXX  ",
"                                                                ",
"                                                                "
};
