/* XPM */
static char *a1131be313284231c1d8ebc157443359BfKKYTslqzFc4T00[] = {
/* columns rows colors chars-per-pixel */
"64 64 3 1 ",
"  c black",
". c gray66",
"X c gray33",
/* pixels */
"                                                                ",
".................................X    X...............X    X....",
"..................................X  X.................X  X.....",
"...................................  X..................  X.....",
"...................................  X..................  X.....",
"...................................  X..................  X.....",
"...................................  X..................  X.....",
"...................................  X..................  X.....",
"...................................  X..................  X.....",
"...................................  X..................  X.....",
"...................................  X..................  X.....",
"...................................  X..................  X.....",
"...................................  X..................  X.....",
"...................................  X..................  X.....",
"...................................  X..................  X.....",
"...................................  X..................  X.....",
"..................................X  XX................X  XX....",
"XXXXXXXXXXXXXXXXXXXXXXXXXXXXXXXXXX    XXXXXXXXXXXXXXXXX    XXXXX",
"                                                                ",
"                                                                ",
"...................X    X......................X    X...........",
"....................X  X........................X  X............",
".....................  X.........................  X............",
".....................  X.........................  X............",
".....................  X.........................  X............",
".....................  X.........................  X............",
".....................  X.........................  X............",
".....................  X.........................  X............",
".....................  X.........................  X............",
".....................  X.........................  X............",
".....................  X.........................  X............",
".....................  X.........................  X............",
".....................  X.........................  X............",
".....................  X.........................  X............",
".....................  X.........................  X............",
".....................  X.........................  X............",
".....................  X.........................  X............",
".....................  X.........................  X............",
".....................  X.........................  X............",
".....................  X.........................  X............",
"....................X  XX.......................X  XX...........",
"XXXXXXXXXXXXXXXXXXXX    XXXXXXXXXXXXXXXXXXXXXXXX    XXXXXXXXXXXX",
"                                                                ",
"                                                                ",
".....................................X    X............X    X...",
"......................................X  X..............X  X....",
".......................................  X...............  X....",
".......................................  X...............  X....",
".......................................  X...............  X....",
".......................................  X...............  X....",
".......................................  X...............  X....",
".......................................  X...............  X....",
".......................................  X...............  X....",
".......................................  X...............  X....",
".......................................  X...............  X....",
".......................................  X...............  X....",
".......................................  X...............  X....",
".......................................  X...............  X....",
".......................................  X...............  X....",
".......................................  X...............  X....",
".......................................  X...............  X....",
"......................................X  XX.............X  XX...",
"XXXXXXXXXXXXXXXXXXXXXXXXXXXXXXXXXXXXXX    XXXXXXXXXXXXXX    XXXX",
"                                                                "
};
